<svg width="1278" height="1137" viewBox="0 0 1278 1137" fill="none" xmlns="http://www.w3.org/2000/svg">
<rect x="83.5637" y="460.4" width="460.033" height="1033.51" rx="230.016" transform="rotate(-55 83.5637 460.4)" stroke="white" stroke-width="120"/>
<rect x="83.5637" y="460.4" width="460.033" height="1033.51" rx="230.016" transform="rotate(-55 83.5637 460.4)" stroke="white" stroke-width="120"/>
<path d="M638.835 360.8L306.396 593.577C229.481 647.434 210.788 753.447 264.645 830.363C318.503 907.279 424.515 925.972 501.431 872.115L534.177 849.185L638.824 922.402L570.26 970.413L568.721 971.484C437.644 1062.03 257.858 1029.88 166.347 899.192L165.275 897.652C75.0817 767.09 106.626 588.199 236.035 496.359L237.567 495.278L534.213 287.564L638.835 360.8ZM707.331 166.346C838.536 74.476 1019.37 106.363 1111.25 237.567L1112.32 239.107C1202.87 370.184 1170.72 549.969 1040.02 641.481L743.392 849.183L638.799 775.927L971.194 543.182C1048.11 489.325 1066.8 383.312 1012.95 306.396C959.09 229.48 853.076 210.787 776.16 264.644L743.392 287.589L638.801 214.331L707.331 166.346Z" fill="white"/>
<path d="M638.835 360.8L306.396 593.577C229.481 647.434 210.788 753.447 264.645 830.363C318.503 907.279 424.515 925.972 501.431 872.115L534.177 849.185L638.824 922.402L570.26 970.413L568.721 971.484C437.644 1062.03 257.858 1029.88 166.347 899.192L165.275 897.652C75.0817 767.09 106.626 588.199 236.035 496.359L237.567 495.278L534.213 287.564L638.835 360.8ZM707.331 166.346C838.536 74.476 1019.37 106.363 1111.25 237.567L1112.32 239.107C1202.87 370.184 1170.72 549.969 1040.02 641.481L743.392 849.183L638.799 775.927L971.194 543.182C1048.11 489.325 1066.8 383.312 1012.95 306.396C959.09 229.48 853.076 210.787 776.16 264.644L743.392 287.589L638.801 214.331L707.331 166.346Z" fill="white"/>
<path d="M1112.66 568.401C1117.56 575.524 1122.12 582.836 1126.33 590.312C1120.04 627.639 1092.8 661.572 1043 717.527C1040.96 695.04 1034.46 673.03 1023.77 652.91C1043.4 639.379 1056.58 630.114 1072.74 614.88C1086.17 602.216 1100.04 586.781 1112.66 568.401Z" fill="white" fill-opacity="0.45"/>
<path d="M545.347 857.001L548.735 859.38L596.79 892.993L638.824 922.402L577.714 965.192L489.709 879.633C493.681 877.305 497.593 874.802 501.431 872.115L534.177 849.185L545.347 857.001Z" fill="white" fill-opacity="0.45"/>
<path d="M384.288 597.722C336.283 630.354 302.034 653.434 289.984 678.183L253.446 652.598C255.082 649.93 257.268 646.475 260.235 641.881C275.735 617.881 292.395 603.22 310.235 590.881C319.266 584.634 332.029 575.68 342.399 568.392L384.288 597.722Z" fill="white" fill-opacity="0.45"/>
<path d="M638.835 360.8L588.003 396.391L482.303 323.911L534.213 287.564L638.835 360.8Z" fill="white" fill-opacity="0.45"/>
</svg>
