<svg width="49" height="49" viewBox="0 0 49 49" fill="none" xmlns="http://www.w3.org/2000/svg">
<path d="M24.5002 4.08337C25.2665 4.08337 26.0219 4.12489 26.7664 4.20792C27.0329 4.23741 27.291 4.3191 27.5259 4.44834C27.7609 4.57758 27.9681 4.75182 28.1356 4.96112C28.3032 5.17043 28.428 5.41069 28.5027 5.6682C28.5775 5.9257 28.6007 6.19541 28.5712 6.46192C28.5418 6.72842 28.4601 6.98651 28.3308 7.22144C28.2016 7.45638 28.0273 7.66356 27.818 7.83115C27.6087 7.99875 27.3685 8.12347 27.111 8.19821C26.8535 8.27295 26.5838 8.29624 26.3172 8.26675C22.9527 7.89036 19.5543 8.56879 16.5921 10.2082C13.63 11.8476 11.2505 14.367 9.78274 17.4179C8.31501 20.4688 7.83159 23.9003 8.39936 27.238C8.96712 30.5756 10.558 33.6543 12.952 36.0482C15.3459 38.4422 18.4246 40.0331 21.7622 40.6008C25.0999 41.1686 28.5314 40.6852 31.5823 39.2175C34.6332 37.7497 37.1526 35.3702 38.792 32.4081C40.4314 29.4459 41.1098 26.0475 40.7335 22.683C40.704 22.4165 40.7272 22.1467 40.802 21.8892C40.8767 21.6317 41.0015 21.3915 41.1691 21.1822C41.5075 20.7595 42.0001 20.4885 42.5383 20.429C43.0765 20.3694 43.6164 20.5261 44.0391 20.8646C44.2484 21.0321 44.4226 21.2393 44.5519 21.4743C44.6811 21.7092 44.7628 21.9673 44.7923 22.2338C44.874 22.9783 44.9155 23.7337 44.9168 24.5C44.9168 35.7762 35.7763 44.9167 24.5002 44.9167C13.224 44.9167 4.0835 35.7762 4.0835 24.5C4.0835 13.2239 13.224 4.08337 24.5002 4.08337ZM24.4348 16.0822C24.5694 16.6064 24.4904 17.1625 24.2151 17.6284C23.9398 18.0943 23.4909 18.4319 22.9669 18.567C21.5272 18.9441 20.274 19.8321 19.441 21.0654C18.608 22.2986 18.2522 23.7928 18.4399 25.2691C18.6276 26.7455 19.3461 28.103 20.4612 29.0886C21.5763 30.0741 23.012 30.6202 24.5002 30.625C25.8585 30.6256 27.1785 30.1746 28.2525 29.3431C29.3265 28.5115 30.0937 27.3465 30.4332 26.0313C30.578 25.5175 30.9181 25.0808 31.3809 24.8148C31.8436 24.5488 32.3922 24.4746 32.909 24.608C33.4258 24.7415 33.8698 25.0721 34.1458 25.5289C34.4219 25.9857 34.5081 26.5325 34.3859 27.0521C33.7596 29.453 32.2806 31.5437 30.2253 32.9337C28.17 34.3237 25.6789 34.9179 23.2175 34.6053C20.7561 34.2927 18.4926 33.0946 16.8501 31.235C15.2075 29.3753 14.2981 26.9812 14.2918 24.5C14.2915 22.2366 15.0434 20.0373 16.4293 18.2478C17.8152 16.4583 19.7565 15.1801 21.9481 14.6143C22.2078 14.5474 22.4781 14.5322 22.7436 14.5698C23.0091 14.6074 23.2646 14.6968 23.4955 14.8332C23.7265 14.9695 23.9283 15.1499 24.0894 15.3643C24.2506 15.5786 24.368 15.8226 24.4348 16.0822ZM37.7792 4.34267C38.1518 4.49718 38.4704 4.75863 38.6946 5.09402C38.9188 5.42941 39.0386 5.8237 39.0389 6.22712V9.96337H42.7731C43.1768 9.96346 43.5715 10.0832 43.9071 10.3076C44.2428 10.5319 44.5044 10.8508 44.6589 11.2238C44.8134 11.5968 44.8538 12.0072 44.7751 12.4032C44.6964 12.7992 44.502 13.163 44.2165 13.4485L36.9952 20.6617C36.6124 21.0446 36.0931 21.2598 35.5517 21.2599H30.6252L26.893 24.9941C26.5099 25.3772 25.9903 25.5924 25.4485 25.5924C24.9067 25.5924 24.3871 25.3772 24.004 24.9941C23.6209 24.611 23.4057 24.0914 23.4057 23.5496C23.4057 23.0079 23.6209 22.4883 24.004 22.1052L27.7382 18.375V13.4465C27.7384 12.905 27.9535 12.3858 28.3365 12.003L35.5537 4.78367C35.8393 4.49797 36.2031 4.30338 36.5992 4.22452C36.9954 4.14565 37.406 4.18606 37.7792 4.34062M34.9555 11.1537L31.8216 14.2917V17.1786H34.7085L37.8445 14.0447H36.9972C36.4557 14.0447 35.9364 13.8296 35.5535 13.4467C35.1706 13.0638 34.9555 12.5445 34.9555 12.003V11.1537Z" fill="url(#paint0_linear_2532_9500)"/>
<defs>
<linearGradient id="paint0_linear_2532_9500" x1="24.5002" y1="4.08337" x2="24.5002" y2="44.9167" gradientUnits="userSpaceOnUse">
<stop stop-color="#8573F2"/>
<stop offset="1" stop-color="#78D2E9"/>
</linearGradient>
</defs>
</svg>
