<svg width="540" height="541" viewBox="0 0 540 541" fill="none" xmlns="http://www.w3.org/2000/svg">
<path fill-rule="evenodd" clip-rule="evenodd" d="M22.5 0.5H517.5C529.875 0.5 540 10.625 540 23V518C540 530.375 529.875 540.5 517.5 540.5H22.5C10.125 540.5 0 530.375 0 518V23C0 10.625 10.125 0.5 22.5 0.5ZM79.8779 420.687C79.8779 442.744 97.7586 460.625 119.815 460.625V460.625C141.872 460.625 159.753 442.744 159.753 420.687V242.937C159.753 220.881 141.872 203 119.815 203V203C97.7586 203 79.8779 220.881 79.8779 242.938V420.687ZM120.378 168.131C94.5029 168.131 74.2529 147.881 74.2529 122.006C74.2529 96.1309 94.5029 75.8809 120.378 75.8809C146.253 75.8809 166.503 96.1309 166.503 122.006C166.503 146.756 146.253 168.131 120.378 168.131ZM380.249 421.247C380.249 442.993 397.877 460.622 419.624 460.622V460.622C441.37 460.622 458.999 442.993 458.999 421.247V318.872C458.999 249.122 444.374 196.247 363.374 196.247C325.363 196.247 298.462 217.356 288.19 237.492C288.071 237.727 287.832 237.872 287.569 237.872V237.872C287.185 237.872 286.874 237.561 286.874 237.177V220.435C286.874 210.804 279.067 202.997 269.436 202.997H248.624C227.499 202.997 210.374 220.122 210.374 241.247V420.685C210.374 442.741 228.254 460.622 250.311 460.622V460.622C272.368 460.622 290.249 442.741 290.249 420.685V333.497C290.249 299.747 296.999 267.122 338.624 267.122C380.249 267.122 380.249 305.372 380.249 335.747V421.247Z" fill="#F4F7FA"/>
</svg>
