<svg width="315" height="316" viewBox="0 0 315 316" fill="none" xmlns="http://www.w3.org/2000/svg">
<path d="M295 0.5C306.046 0.5 315 9.45431 315 20.5V295.5C315 306.546 306.046 315.5 295 315.5H20C8.95431 315.5 6.24165e-07 306.546 0 295.5V20.5C0 9.45431 8.95431 0.500001 20 0.5H295ZM156.75 77C111.873 77 75.5 113.379 75.5 158.25C75.5 203.121 111.873 239.5 156.75 239.5C201.627 239.5 238 203.127 238 158.25C238 113.373 201.627 77 156.75 77ZM156.75 109.635C183.6 109.635 205.369 131.404 205.369 158.254C205.369 185.104 183.6 206.874 156.75 206.874C129.9 206.874 108.13 185.104 108.13 158.254C108.13 131.404 129.9 109.635 156.75 109.635ZM256.478 37.5C244.616 37.5 235 47.116 235 58.9775C235 70.839 244.616 80.4541 256.478 80.4541C268.339 80.454 277.954 70.8389 277.954 58.9775C277.954 47.1161 268.339 37.5001 256.478 37.5Z" fill="#F4F7FA"/>
</svg>
