<svg width="39" height="39" viewBox="0 0 39 39" fill="none" xmlns="http://www.w3.org/2000/svg">
<path d="M23.158 5.99213C23.158 6.3333 23.2936 6.66051 23.5348 6.90176C23.7761 7.14301 24.1033 7.27854 24.4445 7.27854C24.7857 7.27854 25.113 7.14301 25.3542 6.90176C25.5955 6.66051 25.731 6.3333 25.731 5.99213V1.28642C25.731 0.945237 25.5955 0.618032 25.3542 0.376783C25.113 0.135533 24.7857 0 24.4445 0C24.1033 0 23.7761 0.135533 23.5348 0.376783C23.2936 0.618032 23.158 0.945237 23.158 1.28642V5.99213ZM34.7365 6.08218C34.9709 5.83955 35.1006 5.5146 35.0976 5.17731C35.0947 4.84001 34.9594 4.51737 34.7209 4.27885C34.4823 4.04034 34.1597 3.90505 33.8224 3.90212C33.485 3.89919 33.1601 4.02885 32.9174 4.26318L29.5905 7.58985C29.4677 7.70852 29.3696 7.85047 29.3022 8.00742C29.2348 8.16437 29.1993 8.33317 29.1978 8.50398C29.1963 8.67479 29.2289 8.84419 29.2936 9.00228C29.3583 9.16038 29.4538 9.30401 29.5746 9.42479C29.6954 9.54558 29.839 9.6411 29.9971 9.70578C30.1552 9.77046 30.3246 9.80301 30.4955 9.80153C30.6663 9.80004 30.8351 9.76455 30.9921 9.69713C31.149 9.62971 31.291 9.53171 31.4096 9.40885L34.7365 6.08218ZM17.4794 9.40885C17.5981 9.53171 17.74 9.62971 17.897 9.69713C18.054 9.76455 18.2228 9.80004 18.3936 9.80153C18.5644 9.80301 18.7338 9.77046 18.8919 9.70578C19.05 9.6411 19.1937 9.54558 19.3145 9.42479C19.4353 9.30401 19.5308 9.16038 19.5955 9.00228C19.6602 8.84419 19.6927 8.67479 19.6912 8.50398C19.6897 8.33317 19.6543 8.16437 19.5868 8.00742C19.5194 7.85047 19.4214 7.70852 19.2985 7.58985L15.9716 4.26318C15.729 4.02885 15.404 3.89919 15.0667 3.90212C14.7294 3.90505 14.4067 4.04034 14.1682 4.27885C13.9297 4.51737 13.7944 4.84001 13.7914 5.17731C13.7885 5.5146 13.9182 5.83955 14.1525 6.08218L17.4794 9.40885ZM15.8816 15.8409C16.2228 15.8409 16.55 15.7054 16.7913 15.4641C17.0325 15.2229 17.1681 14.8957 17.1681 14.5545C17.1681 14.2133 17.0325 13.8861 16.7913 13.6449C16.55 13.4036 16.2228 13.2681 15.8816 13.2681H11.1756C10.8344 13.2681 10.5071 13.4036 10.2659 13.6449C10.0246 13.8861 9.88906 14.2133 9.88906 14.5545C9.88906 14.8957 10.0246 15.2229 10.2659 15.4641C10.5071 15.7054 10.8344 15.8409 11.1756 15.8409H15.8816ZM37.7135 15.8409C38.0547 15.8409 38.3819 15.7054 38.6232 15.4641C38.8645 15.2229 39 14.8957 39 14.5545C39 14.2133 38.8645 13.8861 38.6232 13.6449C38.3819 13.4036 38.0547 13.2681 37.7135 13.2681H33.0075C32.6663 13.2681 32.3391 13.4036 32.0978 13.6449C31.8565 13.8861 31.721 14.2133 31.721 14.5545C31.721 14.8957 31.8565 15.2229 32.0978 15.4641C32.3391 15.7054 32.6663 15.8409 33.0075 15.8409H37.7135ZM32.9174 24.8458C33.0361 24.9687 33.1781 25.0667 33.335 25.1341C33.492 25.2015 33.6608 25.237 33.8316 25.2385C34.0024 25.24 34.1718 25.2075 34.3299 25.1428C34.488 25.0781 34.6317 24.9826 34.7525 24.8618C34.8733 24.741 34.9688 24.5974 35.0335 24.4393C35.0982 24.2812 35.1307 24.1118 35.1292 23.941C35.1278 23.7702 35.0923 23.6014 35.0248 23.4444C34.9574 23.2875 34.8594 23.1455 34.7365 23.0268L31.4096 19.7002C31.291 19.5773 31.149 19.4793 30.9921 19.4119C30.8351 19.3445 30.6663 19.309 30.4955 19.3075C30.3246 19.306 30.1552 19.3386 29.9971 19.4032C29.839 19.4679 29.6954 19.5634 29.5746 19.6842C29.4538 19.805 29.3583 19.9486 29.2936 20.1067C29.2289 20.2648 29.1963 20.4342 29.1978 20.605C29.1993 20.7759 29.2348 20.9447 29.3022 21.1016C29.3696 21.2586 29.4677 21.4005 29.5905 21.5192L32.9174 24.8458ZM23.158 27.8226C23.158 28.1638 23.2936 28.491 23.5348 28.7322C23.7761 28.9735 24.1033 29.109 24.4445 29.109C24.7857 29.109 25.113 28.9735 25.3542 28.7322C25.5955 28.491 25.731 28.1638 25.731 27.8226V23.1169C25.731 22.7757 25.5955 22.4485 25.3542 22.2073C25.113 21.966 24.7857 21.8305 24.4445 21.8305C24.1033 21.8305 23.7761 21.966 23.5348 22.2073C23.2936 22.4485 23.158 22.7757 23.158 23.1169V27.8226ZM27.9284 14.7089C28.1688 14.4677 28.3038 14.1412 28.3038 13.8007C28.3038 13.4602 28.1688 13.1336 27.9284 12.8925L26.1067 11.0709C25.8654 10.8297 25.5383 10.6943 25.1971 10.6943C24.856 10.6943 24.5288 10.8297 24.2876 11.0709L20.9607 14.4001C20.7195 14.6414 20.584 14.9685 20.584 15.3096C20.584 15.6507 20.7195 15.9779 20.9607 16.2191L22.7824 18.0407C23.0236 18.2819 23.3508 18.4173 23.6919 18.4173C24.0331 18.4173 24.3602 18.2819 24.6015 18.0407L27.9284 14.714V14.7089ZM20.2094 22.4274C20.4498 22.1862 20.5848 21.8596 20.5848 21.5192C20.5848 21.1787 20.4498 20.8521 20.2094 20.611L18.3877 18.7894C18.1464 18.5482 17.8193 18.4127 17.4781 18.4127C17.137 18.4127 16.8098 18.5482 16.5686 18.7894L0.37667 34.9828C0.135488 35.224 0 35.5512 0 35.8923C0 36.2334 0.135488 36.5606 0.37667 36.8018L2.19836 38.6234C2.43961 38.8645 2.76678 39 3.10791 39C3.44905 39 3.77621 38.8645 4.01747 38.6234L20.2094 22.4274Z" fill="url(#paint0_linear_2532_9506)"/>
<defs>
<linearGradient id="paint0_linear_2532_9506" x1="19.5" y1="0" x2="19.5" y2="39" gradientUnits="userSpaceOnUse">
<stop stop-color="#8575F2"/>
<stop offset="1" stop-color="#79CDE9"/>
</linearGradient>
</defs>
</svg>
