<svg width="43" height="43" viewBox="0 0 43 43" fill="none" xmlns="http://www.w3.org/2000/svg">
<path d="M4.6584 23.4404L10.8432 26.1476L28.6667 16.4242L17.9167 28.9659L33.3251 35.9821C33.5886 36.0975 33.876 36.1477 34.1631 36.1286C34.4501 36.1095 34.7283 36.0215 34.9742 35.8721C35.22 35.7227 35.4263 35.5163 35.5755 35.2704C35.7248 35.0245 35.8126 34.7462 35.8316 34.4591L37.6233 7.58415C37.6432 7.27308 37.5819 6.96219 37.4452 6.68204C37.3085 6.4019 37.1013 6.16217 36.8438 5.98644C36.5864 5.81072 36.2876 5.70505 35.9769 5.67983C35.6662 5.65462 35.3544 5.71073 35.0719 5.84265L4.61361 20.176C4.30291 20.3234 4.0411 20.5569 3.85929 20.8488C3.67748 21.1407 3.58334 21.4787 3.58806 21.8226C3.59278 22.1664 3.69616 22.5017 3.8859 22.7885C4.07565 23.0753 4.34378 23.3016 4.6584 23.4404ZM14.3334 39.7159L22.8904 35.5664L14.3334 31.5746V39.7159Z" fill="url(#paint0_linear_2532_9510)"/>
<defs>
<linearGradient id="paint0_linear_2532_9510" x1="20.6074" y1="5.67395" x2="20.6074" y2="39.7159" gradientUnits="userSpaceOnUse">
<stop stop-color="#8577F2"/>
<stop offset="1" stop-color="#79CDE9"/>
</linearGradient>
</defs>
</svg>
